<svg xmlns="http://www.w3.org/2000/svg" viewBox="0 0 640 640" width="640" height="640" font-family="Archivo, Helvetica, Arial, sans-serif"><rect width="100%" height="100%" fill="#fbfaf7"/><circle cx="296.3" cy="324.7" r="272.1" fill="none" stroke="#111" stroke-width="1.5" stroke-dasharray="6 4"/><circle cx="296.3" cy="324.7" r="108.9" fill="#d0021b" fill-opacity="0.07" stroke="#d0021b" stroke-width="1.5" stroke-dasharray=""/><polygon points="265.9,325.7 268.4,334.8 275.0,341.4 284.1,343.8 308.6,341.9 317.6,339.5 324.3,332.8 326.7,323.7 324.3,314.7 317.6,308.0 308.6,305.6 305.1,305.9 291.1,307.0 284.1,307.5 275.0,310.0 268.4,316.6" fill="#111" fill-opacity="0.08" stroke="#111" stroke-width="2"/><polyline points="284.1,325.7 291.1,325.1 305.1,324.0 308.6,323.7" fill="none" stroke="#555" stroke-width="2"/><circle cx="320.0" cy="320.0" r="5" fill="#d0021b" stroke="#fff" stroke-width="1.5"/><line x1="20" y1="620" x2="110.7" y2="620" stroke="#111" stroke-width="3"/><text x="20" y="612" font-size="12" fill="#111">100 m</text><text x="20" y="30" font-size="18" font-weight="700" fill="#111">Cursdorf</text><text x="20" y="50" font-size="13" fill="#333">Ring 300 m · 1 Tastpunkte (120) · 0.2 ha</text><text x="628" y="628" font-size="10" fill="#666" text-anchor="end">Gelände © OpenStreetMap-Mitwirkende, ODbL</text></svg>